<?xml version="1.0" encoding="UTF-8"?>
<svg width="27px" height="27px" viewBox="0 0 27 27" version="1.1" xmlns="http://www.w3.org/2000/svg" xmlns:xlink="http://www.w3.org/1999/xlink">
    <title>E73F2DCA-B846-44A6-83CE-B421EA6B612A</title>
    <defs>
        <polygon id="path-1" points="0.0001 0.3601 26.64 0.3601 26.64 27 0.0001 27"></polygon>
        <path d="M9.739,1.022 L4.642,9.46 L2.611,6.718 C2.198,6.148 1.44,6.042 0.924,6.469 L0.924,6.469 C0.62,6.72 0.46,7.082 0.456,7.453 L0.456,7.453 L0.456,7.482 C0.458,7.733 0.533,7.988 0.683,8.214 L0.683,8.214 L3.782,12.415 C3.988,12.699 4.367,12.913 4.746,12.913 L4.746,12.913 C4.746,12.913 4.78,12.913 4.78,12.878 L4.78,12.878 C5.193,12.878 5.538,12.664 5.744,12.308 L5.744,12.308 L11.77,2.339 C12.114,1.734 11.942,0.986 11.391,0.63 L11.391,0.63 C11.186,0.506 10.965,0.447 10.749,0.447 L10.749,0.447 C10.347,0.447 9.962,0.651 9.739,1.022 L9.739,1.022 Z" id="path-3"></path>
    </defs>
    <g id="2020-Web-Pages" stroke="none" stroke-width="1" fill="none" fill-rule="evenodd">
        <g id="Countdown-Timer-Page" transform="translate(-269.000000, -6238.000000)">
            <g id="Group-4" transform="translate(202.000000, 6111.000000)">
                <g id="Group-10" transform="translate(67.000000, 126.000000)">
                    <g id="Group-6" transform="translate(0.000000, 0.640000)">
                        <g id="Group-3">
                            <mask id="mask-2" fill="white">
                                <use xlink:href="#path-1"></use>
                            </mask>
                            <g id="Clip-2"></g>
                            <path d="M26.6401,13.6801 C26.6401,21.0361 20.6761,27.0001 13.3201,27.0001 C5.9631,27.0001 0.0001,21.0361 0.0001,13.6801 C0.0001,6.3241 5.9631,0.3601 13.3201,0.3601 C20.6761,0.3601 26.6401,6.3241 26.6401,13.6801" id="Fill-1" fill="#32DAB3" mask="url(#mask-2)"></path>
                        </g>
                        <path d="M10.7817,19.415 L7.6837,15.214 C7.3037,14.644 7.4077,13.896 7.9247,13.469 C8.4407,13.042 9.1977,13.148 9.6107,13.718 L11.6427,16.46 L16.7387,8.021 C17.0827,7.452 17.8057,7.274 18.3917,7.63 C18.9427,7.986 19.1147,8.734 18.7707,9.339 L12.7447,19.308 C12.5377,19.665 12.1937,19.878 11.7807,19.878 C11.7807,19.914 11.7457,19.914 11.7457,19.914 C11.3667,19.914 10.9887,19.699 10.7817,19.415" id="Fill-4" fill="#FFFFFF"></path>
                    </g>
                    <g id="Group-9" transform="translate(7.000000, 7.640000)">
                        <mask id="mask-4" fill="white">
                            <use xlink:href="#path-3"></use>
                        </mask>
                        <g id="Clip-8"></g>
                        <polygon id="Fill-7" fill="#FFFFFF" mask="url(#mask-4)" points="-0.681 14.169 13.322 14.169 13.322 -0.809 -0.681 -0.809"></polygon>
                    </g>
                </g>
            </g>
        </g>
    </g>
</svg>